<svg id="visual" viewBox="0 0 900 600" width="900" height="600" xmlns="http://www.w3.org/2000/svg" xmlns:xlink="http://www.w3.org/1999/xlink" version="1.1"><path d="M0 103L13.7 101C27.3 99 54.7 95 82 94C109.3 93 136.7 95 163.8 89C191 83 218 69 245.2 69C272.3 69 299.7 83 327 82C354.3 81 381.7 65 409 55C436.3 45 463.7 41 491 49C518.3 57 545.7 77 573 86C600.3 95 627.7 93 654.8 91C682 89 709 87 736.2 83C763.3 79 790.7 73 818 76C845.3 79 872.7 91 886.3 97L900 103L900 0L886.3 0C872.7 0 845.3 0 818 0C790.7 0 763.3 0 736.2 0C709 0 682 0 654.8 0C627.7 0 600.3 0 573 0C545.7 0 518.3 0 491 0C463.7 0 436.3 0 409 0C381.7 0 354.3 0 327 0C299.7 0 272.3 0 245.2 0C218 0 191 0 163.8 0C136.7 0 109.3 0 82 0C54.7 0 27.3 0 13.7 0L0 0Z" fill="#003d96"></path><path d="M0 319L13.7 299C27.3 279 54.7 239 82 244C109.3 249 136.7 299 163.8 308C191 317 218 285 245.2 267C272.3 249 299.7 245 327 253C354.3 261 381.7 281 409 265C436.3 249 463.7 197 491 203C518.3 209 545.7 273 573 284C600.3 295 627.7 253 654.8 238C682 223 709 235 736.2 240C763.3 245 790.7 243 818 240C845.3 237 872.7 233 886.3 231L900 229L900 101L886.3 95C872.7 89 845.3 77 818 74C790.7 71 763.3 77 736.2 81C709 85 682 87 654.8 89C627.7 91 600.3 93 573 84C545.7 75 518.3 55 491 47C463.7 39 436.3 43 409 53C381.7 63 354.3 79 327 80C299.7 81 272.3 67 245.2 67C218 67 191 81 163.8 87C136.7 93 109.3 91 82 92C54.7 93 27.3 97 13.7 99L0 101Z" fill="#0047b1"></path><path d="M0 397L13.7 397C27.3 397 54.7 397 82 408C109.3 419 136.7 441 163.8 456C191 471 218 479 245.2 468C272.3 457 299.7 427 327 410C354.3 393 381.7 389 409 379C436.3 369 463.7 353 491 367C518.3 381 545.7 425 573 436C600.3 447 627.7 425 654.8 414C682 403 709 403 736.2 408C763.3 413 790.7 423 818 432C845.3 441 872.7 449 886.3 453L900 457L900 227L886.3 229C872.7 231 845.3 235 818 238C790.7 241 763.3 243 736.2 238C709 233 682 221 654.8 236C627.7 251 600.3 293 573 282C545.7 271 518.3 207 491 201C463.7 195 436.3 247 409 263C381.7 279 354.3 259 327 251C299.7 243 272.3 247 245.2 265C218 283 191 315 163.8 306C136.7 297 109.3 247 82 242C54.7 237 27.3 277 13.7 297L0 317Z" fill="#0051cc"></path><path d="M0 535L13.7 536C27.3 537 54.7 539 82 542C109.3 545 136.7 549 163.8 551C191 553 218 553 245.2 543C272.3 533 299.7 513 327 499C354.3 485 381.7 477 409 475C436.3 473 463.7 477 491 491C518.3 505 545.7 529 573 532C600.3 535 627.7 517 654.8 506C682 495 709 491 736.2 494C763.3 497 790.7 507 818 517C845.3 527 872.7 537 886.3 542L900 547L900 455L886.3 451C872.7 447 845.3 439 818 430C790.7 421 763.3 411 736.2 406C709 401 682 401 654.8 412C627.7 423 600.3 445 573 434C545.7 423 518.3 379 491 365C463.7 351 436.3 367 409 377C381.7 387 354.3 391 327 408C299.7 425 272.3 455 245.2 466C218 477 191 469 163.8 454C136.7 439 109.3 417 82 406C54.7 395 27.3 395 13.7 395L0 395Z" fill="#2e67d7"></path><path d="M0 601L13.7 601C27.3 601 54.7 601 82 601C109.3 601 136.7 601 163.8 601C191 601 218 601 245.2 601C272.3 601 299.7 601 327 601C354.3 601 381.7 601 409 601C436.3 601 463.7 601 491 601C518.3 601 545.7 601 573 601C600.3 601 627.7 601 654.8 601C682 601 709 601 736.2 601C763.3 601 790.7 601 818 601C845.3 601 872.7 601 886.3 601L900 601L900 545L886.3 540C872.7 535 845.3 525 818 515C790.7 505 763.3 495 736.2 492C709 489 682 493 654.8 504C627.7 515 600.3 533 573 530C545.7 527 518.3 503 491 489C463.7 475 436.3 471 409 473C381.7 475 354.3 483 327 497C299.7 511 272.3 531 245.2 541C218 551 191 551 163.8 549C136.7 547 109.3 543 82 540C54.7 537 27.3 535 13.7 534L0 533Z" fill="#4a7ce1"></path></svg>